HIERARCHY
ROOT Hips
{
	OFFSET 0.00000 0.00000 0.00000
	CHANNELS 6 Xposition Yposition Zposition Zrotation Yrotation Xrotation 
	JOINT LHipJoint
	{
		OFFSET 0 0 0
		CHANNELS 3 Zrotation Yrotation Xrotation
		JOINT LeftUpLeg
		{
			OFFSET 1.62067 -1.77917 0.70989
			CHANNELS 3 Zrotation Yrotation Xrotation
			JOINT LeftLeg
			{
				OFFSET 2.34532 -6.44371 0.00000
				CHANNELS 3 Zrotation Yrotation Xrotation
				JOINT LeftFoot
				{
					OFFSET 2.74224 -7.53425 0.00000
					CHANNELS 3 Zrotation Yrotation Xrotation
					JOINT LeftToeBase
					{
						OFFSET 0.17032 -0.46794 2.08086
						CHANNELS 3 Zrotation Yrotation Xrotation
						End Site
						{
							OFFSET 0.00000 -0.00000 1.07476
						}
					}
				}
			}
		}
	}
	JOINT RHipJoint
	{
		OFFSET 0 0 0
		CHANNELS 3 Zrotation Yrotation Xrotation
		JOINT RightUpLeg
		{
			OFFSET -1.55811 -1.77917 0.70989
			CHANNELS 3 Zrotation Yrotation Xrotation
			JOINT RightLeg
			{
				OFFSET -2.33243 -6.40830 0.00000
				CHANNELS 3 Zrotation Yrotation Xrotation
				JOINT RightFoot
				{
					OFFSET -2.78798 -7.65993 0.00000
					CHANNELS 3 Zrotation Yrotation Xrotation
					JOINT RightToeBase
					{
						OFFSET -0.22707 -0.62388 2.04059
						CHANNELS 3 Zrotation Yrotation Xrotation
						End Site
						{
							OFFSET -0.00000 -0.00000 1.07030
						}
					}
				}
			}
		}
	}
	JOINT LowerBack
	{
		OFFSET 0 0 0
		CHANNELS 3 Zrotation Yrotation Xrotation
		JOINT Spine
		{
			OFFSET 0.02203 1.91565 0.07161
			CHANNELS 3 Zrotation Yrotation Xrotation
			JOINT Spine1
			{
				OFFSET 0.01740 1.90525 0.11636
				CHANNELS 3 Zrotation Yrotation Xrotation
				JOINT Neck
				{
					OFFSET 0 0 0
					CHANNELS 3 Zrotation Yrotation Xrotation
					JOINT Neck1
					{
						OFFSET -0.10841 1.83566 0.05067
						CHANNELS 3 Zrotation Yrotation Xrotation
						JOINT Head
						{
							OFFSET 0.06601 1.74760 -0.50505
							CHANNELS 3 Zrotation Yrotation Xrotation
							End Site
							{
								OFFSET 0.03102 1.85215 -0.17697
							}
						}
					}
				}
				JOINT LeftShoulder
				{
					OFFSET 0 0 0
					CHANNELS 3 Zrotation Yrotation Xrotation
					JOINT LeftArm
					{
						OFFSET 2.87059 1.35470 0.16111
						CHANNELS 3 Zrotation Yrotation Xrotation
						JOINT LeftForeArm
						{
							OFFSET 5.43592 -0.00000 0.00000
							CHANNELS 3 Zrotation Yrotation Xrotation
							JOINT LeftHand
							{
								OFFSET 3.25460 -0.00000 0.00000
								CHANNELS 3 Zrotation Yrotation Xrotation
								JOINT LeftFingerBase
								{
									OFFSET 0 0 0
									CHANNELS 3 Zrotation Yrotation Xrotation
									JOINT LeftHandIndex1
									{
										OFFSET 0.49824 -0.00000 0.00000
										CHANNELS 3 Zrotation Yrotation Xrotation
										End Site
										{
											OFFSET 0.40170 -0.00000 0.00000
										}
									}
								}
								JOINT LThumb
								{
									OFFSET 0 0 0
									CHANNELS 3 Zrotation Yrotation Xrotation
									End Site
									{
										OFFSET 0.40783 -0.00000 0.40783
									}
								}
							}
						}
					}
				}
				JOINT RightShoulder
				{
					OFFSET 0 0 0
					CHANNELS 3 Zrotation Yrotation Xrotation
					JOINT RightArm
					{
						OFFSET -2.86643 1.23488 0.45957
						CHANNELS 3 Zrotation Yrotation Xrotation
						JOINT RightForeArm
						{
							OFFSET -5.33830 -0.00000 0.00000
							CHANNELS 3 Zrotation Yrotation Xrotation
							JOINT RightHand
							{
								OFFSET -3.23148 -0.00000 0.00000
								CHANNELS 3 Zrotation Yrotation Xrotation
								JOINT RightFingerBase
								{
									OFFSET 0 0 0
									CHANNELS 3 Zrotation Yrotation Xrotation
									JOINT RightHandIndex1
									{
										OFFSET -0.46364 -0.00000 0.00000
										CHANNELS 3 Zrotation Yrotation Xrotation
										End Site
										{
											OFFSET -0.37380 -0.00000 0.00000
										}
									}
								}
								JOINT RThumb
								{
									OFFSET 0 0 0
									CHANNELS 3 Zrotation Yrotation Xrotation
									End Site
									{
										OFFSET -0.37951 -0.00000 0.37951
									}
								}
							}
						}
					}
				}
			}
		}
	}
}
MOTION
Frames: 9
Frame Time: .0083333
1.4449 17.1638 -5.1721 4.9494 -6.0134 7.8661 0.0000 0.0000 0.0000 -31.4717 -10.3640 -12.4713 2.6822 10.1620 29.5029 1.4333 0.2696 -22.7458 0.0512 1.4599 4.0153 0.0000 0.0000 0.0000 9.3906 20.2898 -42.6712 -7.5150 -15.7507 50.7963 0.0655 -10.2680 -13.5277 -0.4574 4.3385 -12.0309 -3.3834 -0.5926 -6.5042 -0.6686 -0.6066 -3.6756 1.1720 -0.2642 -0.1170 -6.5953 -1.9287 -16.0278 4.4050 -2.1668 26.5762 2.4305 -1.1089 11.4184 0.0000 -0.0000 0.0000 -82.2711 -3.6040 41.1072 20.6360 -31.4010 -5.8591 -0.0000 0.0000 -10.4182 36.8685 -22.4975 -16.0118 -7.1250 0.0000 -0.0000 4.8469 2.6946 -4.6305 0.0000 -0.0000 0.0000 86.0870 -10.9185 35.1742 -19.1496 29.6042 -5.1046 0.0000 0.0000 1.6684 -35.1960 -40.5119 24.6162 7.1250 -0.0000 -0.0000 1.6551 -76.2515 -1.2144
1.4331 17.1711 -5.0656 4.9929 -5.9926 7.9847 0.0000 0.0000 0.0000 -31.5744 -10.2464 -11.9123 2.5914 10.0022 28.9840 1.4443 0.2666 -22.8322 0.0502 1.4456 3.9758 0.0000 0.0000 0.0000 9.1422 20.5795 -42.7585 -6.7851 -15.1482 48.0566 0.1366 -10.6933 -12.9065 -0.5517 4.7582 -13.2202 -3.6009 -0.6175 -6.3804 -0.6459 -0.6347 -3.7137 1.3167 -0.2728 -0.2221 -6.5667 -1.9191 -16.3339 4.4119 -2.1476 26.7882 2.4347 -1.0952 11.5594 -0.0000 0.0000 0.0000 -82.3614 -4.1184 41.4991 20.8280 -31.6270 -5.9595 -0.0000 0.0000 -10.5382 37.3514 -22.4022 -16.2179 -7.1250 0.0000 -0.0000 5.1566 2.6671 -4.9314 -0.0000 0.0000 0.0000 86.2009 -10.9752 34.8032 -19.2512 29.7296 -5.1548 0.0000 0.0000 2.3052 -35.5097 -39.7691 24.5345 7.1250 -0.0000 -0.0000 0.1343 -75.6144 -0.0967
1.4217 17.1796 -4.9587 5.0745 -5.6790 8.1753 0.0000 0.0000 0.0000 -31.6857 -10.2113 -11.2750 2.4677 9.7789 28.2636 1.4337 0.1851 -22.7198 0.0387 1.2691 3.4895 0.0000 0.0000 0.0000 8.8535 20.5517 -42.8586 -6.0853 -14.5105 45.3232 0.1770 -10.8261 -12.3385 -0.5748 4.8550 -13.4955 -3.8675 -0.7619 -6.4072 -0.5809 -0.8123 -3.7415 1.5217 -0.3566 -0.2238 -6.5882 -1.7910 -16.3495 4.4307 -1.9594 26.7361 2.4723 -1.0091 11.5301 0.0000 0.0000 0.0000 -82.4824 -4.6625 41.8574 21.0148 -31.8456 -6.0577 -0.0000 0.0000 -10.7720 37.3404 -22.5728 -16.3226 -7.1250 0.0000 -0.0000 5.1167 2.4719 -4.9111 0.0000 0.0000 0.0000 86.1729 -10.8545 35.0387 -19.2843 29.7704 -5.1713 0.0000 0.0000 1.3738 -36.9292 -39.7442 25.6669 7.1250 -0.0000 -0.0000 -2.7008 -76.0955 1.9729
1.4149 17.1848 -4.8424 5.0756 -5.3300 8.2769 0.0000 0.0000 0.0000 -31.7481 -10.1331 -10.4829 2.3449 9.5502 27.5322 1.4204 0.1374 -22.5973 0.0288 1.0961 3.0132 0.0000 0.0000 0.0000 8.7473 20.3623 -42.6783 -5.4281 -13.8503 42.6409 0.2037 -10.8144 -11.7442 -0.5377 4.6985 -13.0505 -3.9601 -0.9194 -6.0661 -0.4908 -1.0426 -4.0427 1.6592 -0.4571 -0.7090 -6.5876 -1.6044 -16.0076 4.3630 -1.6987 26.8270 2.4863 -0.9044 11.4781 0.0000 0.0000 0.0000 -82.6453 -4.4827 42.1121 21.3176 -32.1972 -6.2183 -0.0000 0.0000 -10.8439 36.8200 -22.6026 -16.0522 -7.1250 0.0000 -0.0000 4.7974 2.5867 -4.5923 0.0000 0.0000 0.0000 86.0538 -11.2817 35.3428 -19.3127 29.8054 -5.1854 0.0000 0.0000 0.5843 -37.7377 -39.1276 26.0306 7.1250 -0.0000 -0.0000 -4.9439 -75.7439 3.5761
1.4099 17.2040 -4.7307 5.0755 -5.1800 8.3899 0.0000 0.0000 0.0000 -31.8152 -9.8920 -9.7151 2.2038 9.2782 26.6696 1.4014 0.1567 -22.4525 0.0205 0.9242 2.5404 0.0000 0.0000 0.0000 8.5606 20.3375 -42.7773 -4.8224 -13.1809 40.0497 0.2620 -10.9617 -10.6512 -0.5234 4.6364 -12.8744 -3.9190 -1.0083 -6.3699 -0.5171 -1.1408 -3.7973 1.5966 -0.5178 -0.2822 -6.5709 -1.6614 -16.2853 4.4044 -1.7727 26.6383 2.4849 -0.9259 11.4666 0.0000 0.0000 0.0000 -82.6421 -5.2638 42.3514 21.4626 -32.3644 -6.2958 -0.0000 0.0000 -10.8074 36.6415 -22.2766 -15.7460 -7.1250 0.0000 -0.0000 4.7519 3.0142 -4.5112 0.0000 0.0000 0.0000 86.1105 -10.9400 35.4618 -19.3854 29.8947 -5.2215 0.0000 0.0000 0.2197 -37.2843 -38.9808 25.5918 7.1250 -0.0000 -0.0000 -4.1512 -75.4327 2.9748
1.3987 17.2077 -4.6160 5.2377 -4.8745 8.4729 0.0000 0.0000 0.0000 -32.0065 -9.6845 -8.9136 2.0682 9.0067 25.8164 1.3952 0.0485 -22.3657 0.0121 0.7106 1.9529 0.0000 0.0000 0.0000 8.3013 20.1172 -42.6547 -4.2701 -12.5115 37.5662 0.3005 -11.0098 -9.6790 -0.5315 4.6718 -12.9747 -4.1410 -1.1378 -6.5229 -0.5680 -1.2891 -3.6649 1.6550 -0.5950 -0.0496 -6.4588 -1.7934 -16.5271 4.3208 -1.9510 26.5264 2.4066 -1.0020 11.4823 0.0000 0.0000 0.0000 -82.6678 -5.8838 42.5917 21.6202 -32.5452 -6.3803 -0.0000 0.0000 -10.7428 36.2726 -21.7056 -15.1844 -7.1250 0.0000 -0.0000 4.6346 3.7763 -4.3338 0.0000 0.0000 0.0000 86.2019 -10.7659 35.5159 -19.4815 30.0126 -5.2695 0.0000 -0.0000 -0.0281 -36.6269 -39.7284 25.4143 7.1250 -0.0000 -0.0000 -2.1048 -75.9719 1.5320
1.3876 17.2160 -4.4780 5.3250 -4.2798 8.3247 0.0000 0.0000 0.0000 -32.1273 -9.4793 -7.6843 1.9325 8.7241 24.9361 1.3998 -0.1984 -22.3200 0.0090 0.6116 1.6805 0.0000 0.0000 0.0000 8.2092 19.7499 -42.0536 -3.7721 -11.8508 35.2063 0.3330 -11.0872 -8.8064 -0.5704 4.8370 -13.4441 -4.2847 -1.2950 -6.5636 -0.5760 -1.4844 -3.5675 1.7120 -0.6945 0.0878 -6.3233 -1.8792 -16.5858 4.1357 -2.0566 26.5481 2.2993 -1.0589 11.5062 0.0000 0.0000 0.0000 -82.7677 -6.0100 43.2848 21.4478 -32.3473 -6.2878 -0.0000 0.0000 -9.2085 38.1957 -23.2770 -17.2718 -7.1250 0.0000 -0.0000 5.4877 1.3993 -5.3770 0.0000 0.0000 0.0000 86.3411 -10.7515 35.2271 -19.4224 29.9402 -5.2400 0.0000 -0.0000 -0.0622 -36.3105 -40.1603 25.3576 7.1250 -0.0000 -0.0000 -0.9880 -76.2996 0.7259
1.3821 17.2142 -4.3421 5.2268 -4.6726 8.3606 0.0000 0.0000 0.0000 -32.1598 -8.8808 -6.9774 1.8149 8.4694 24.1492 1.4049 -0.2376 -22.3480 0.0214 0.9450 2.5976 0.0000 0.0000 0.0000 8.1762 20.1524 -41.7881 -3.3330 -11.2156 33.0105 0.3344 -10.8210 -7.8827 -0.5972 4.9471 -13.7576 -4.2321 -1.1342 -6.8365 -0.5502 -1.2584 -3.5323 1.7195 -0.5857 0.2612 -6.2751 -1.8151 -16.3788 4.0535 -1.9662 26.4646 2.2725 -1.0245 11.4257 0.0000 0.0000 0.0000 -82.8973 -6.1819 43.7653 21.5172 -32.4271 -6.3250 -0.0000 0.0000 -8.8435 39.2921 -24.3751 -18.6599 -7.1250 0.0000 -0.0000 5.9041 -0.2249 -5.9589 0.0000 0.0000 0.0000 86.4432 -10.7970 34.8001 -19.3446 29.8447 -5.2012 0.0000 0.0000 0.4609 -36.0169 -40.7667 25.3943 7.1250 -0.0000 -0.0000 0.3562 -76.8071 -0.2655
1.3666 17.2182 -4.2268 5.2126 -4.2316 8.4863 0.0000 0.0000 0.0000 -32.0677 -8.5702 -6.3188 1.7057 8.2242 23.3971 1.4006 -0.8099 -22.1354 0.0416 1.3157 3.6178 0.0000 0.0000 0.0000 7.9833 20.1263 -41.6342 -2.9514 -10.6159 30.9953 0.3323 -10.7327 -7.6587 -0.4469 4.2891 -11.8914 -4.3755 -1.2571 -6.8468 -0.4996 -1.4123 -3.5148 1.8402 -0.6614 0.2984 -6.3389 -1.7725 -16.2288 4.1818 -1.9279 26.2642 2.3333 -0.9965 11.3185 -0.0000 0.0000 0.0000 -83.0252 -6.5842 44.1837 21.6277 -32.5537 -6.3843 -0.0000 0.0000 -9.0812 39.3740 -24.8504 -19.0282 -7.1250 0.0000 -0.0000 5.8482 -0.8044 -5.9607 -0.0000 0.0000 0.0000 86.4988 -10.8521 34.4536 -19.4384 29.9598 -5.2480 0.0000 0.0000 1.3911 -35.8635 -42.1296 25.8703 7.1250 -0.0000 -0.0000 2.6932 -78.1087 -2.0807
